<?xml version="1.0" encoding="UTF-8"?>
<svg width="16px" height="16px" viewBox="0 0 16 16" version="1.1" xmlns="http://www.w3.org/2000/svg" xmlns:xlink="http://www.w3.org/1999/xlink">
    <title>Group</title>
    <g id="Symbols" stroke="none" stroke-width="1" fill="none" fill-rule="evenodd">
        <g id="icon/add" fill="#818181">
            <g id="Group">
                <path d="M8,0 C3.6,0 0,3.6 0,8 C0,12.4 3.6,16 8,16 C12.4,16 16,12.4 16,8 C16,3.6 12.4,0 8,0 L8,0 Z M8,14 C4.7,14 2,11.3 2,8 C2,4.7 4.7,2 8,2 C11.3,2 14,4.7 14,8 C14,11.3 11.3,14 8,14 L8,14 Z" id="Shape"></path>
                <path d="M11,7 L9,7 L9,5 C9,4.4 8.6,4 8,4 C7.4,4 7,4.4 7,5 L7,7 L5,7 C4.4,7 4,7.4 4,8 C4,8.6 4.4,9 5,9 L7,9 L7,11 C7,11.6 7.4,12 8,12 C8.6,12 9,11.6 9,11 L9,9 L11,9 C11.6,9 12,8.6 12,8 C12,7.4 11.6,7 11,7 L11,7 Z" id="Shape"></path>
            </g>
        </g>
    </g>
</svg>