<svg width="16" height="16" viewBox="0 0 16 16" fill="none" xmlns="http://www.w3.org/2000/svg">
<path d="M13 16H3C1.3 16 0 14.7 0 13V9C0 7.3 1.3 6 3 6V1C3 0.4 3.4 0 4 0H12C12.6 0 13 0.4 13 1V6C14.7 6 16 7.3 16 9V13C16 14.7 14.7 16 13 16ZM9 14H13C13.6 14 14 13.6 14 13V9C14 8.4 13.6 8 13 8V10C13 10.6 12.6 11 12 11H4C3.4 11 3 10.6 3 10V8C2.4 8 2 8.4 2 9V13C2 13.6 2.4 14 3 14H7V13C7 12.4 7.4 12 8 12C8.6 12 9 12.4 9 13V14ZM5 9H11V2H5V9ZM9 8H7C6.4 8 6 7.6 6 7C6 6.4 6.4 6 7 6H9C9.6 6 10 6.4 10 7C10 7.6 9.6 8 9 8ZM9 5H7C6.4 5 6 4.6 6 4C6 3.4 6.4 3 7 3H9C9.6 3 10 3.4 10 4C10 4.6 9.6 5 9 5Z" fill="black"/>
</svg>
