<?xml version="1.0" encoding="UTF-8"?>
<svg width="6px" height="10px" viewBox="0 0 6 10" version="1.1" xmlns="http://www.w3.org/2000/svg" xmlns:xlink="http://www.w3.org/1999/xlink">
    <title>arrow-left</title>
    <g id="Ui-кит" stroke="none" stroke-width="1" fill="none" fill-rule="evenodd">
        <g id="Input" transform="translate(-726.000000, -2213.000000)" fill="#000000">
            <g id="nested-select" transform="translate(50.000000, 2051.000000)">
                <g id="Group-Copy-17" transform="translate(660.000000, 80.000000)">
                    <path d="M18.9166667,89.9166667 C18.6666667,89.9166667 18.5,89.8333333 18.3333333,89.6666667 L14.1666667,85.5 C13.8333333,85.1666667 13.8333333,84.6666667 14.1666667,84.3333333 C14.5,84 15,84 15.3333333,84.3333333 L18.9166667,87.9166667 L22.5,84.3333333 C22.8333333,84 23.3333333,84 23.6666667,84.3333333 C24,84.6666667 24,85.1666667 23.6666667,85.5 L19.5,89.6666667 C19.3333333,89.8333333 19.1666667,89.9166667 18.9166667,89.9166667 L18.9166667,89.9166667 Z" id="arrow-left" transform="translate(18.916667, 87.000000) scale(-1, 1) rotate(-90.000000) translate(-18.916667, -87.000000) "></path>
                </g>
            </g>
        </g>
    </g>
</svg>