<?xml version="1.0" encoding="UTF-8"?>
<svg width="17px" height="15px" viewBox="0 0 17 15" version="1.1" xmlns="http://www.w3.org/2000/svg" xmlns:xlink="http://www.w3.org/1999/xlink">
    <!-- Generator: Sketch 59.1 (86144) - https://sketch.com -->
    <title>Shape</title>
    <desc>Created with Sketch.</desc>
    <g id="Сравнение" stroke="none" stroke-width="1" fill="none" fill-rule="evenodd">
        <g id="Сравнение-Copy-10" transform="translate(-1463.000000, -311.000000)" fill="#000000">
            <g id="to-right" transform="translate(1445.000000, 287.000000)">
                <path d="M35,31.2857143 L35,31.2857143 L35,31.2857143 C35,31.4071429 35,31.65 34.8785714,31.7714286 C34.8785714,31.8928571 34.7571429,32.0142857 34.6357143,32.1357143 L28.5642857,38.2071429 C28.0785714,38.6928571 27.35,38.6928571 26.8642857,38.2071429 C26.3785714,37.7214286 26.3785714,36.9928571 26.8642857,36.5071429 L30.8714286,32.5 L19.2142857,32.5 C18.4857143,32.5 18,32.0142857 18,31.2857143 C18,30.5571429 18.4857143,30.0714286 19.2142857,30.0714286 L30.8714286,30.0714286 L26.8642857,26.0642857 C26.3785714,25.5785714 26.3785714,24.85 26.8642857,24.3642857 C27.35,23.8785714 28.0785714,23.8785714 28.5642857,24.3642857 L34.6357143,30.4357143 C34.7571429,30.5571429 34.8785714,30.6785714 34.8785714,30.8 C35,30.9214286 35,31.1642857 35,31.2857143 L35,31.2857143 L35,31.2857143 L35,31.2857143 Z" id="Shape"></path>
            </g>
        </g>
    </g>
</svg>