<svg width="15" height="16" viewBox="0 0 15 16" fill="none" xmlns="http://www.w3.org/2000/svg">
<path d="M11 16H4C2.9 16 2 15.1 2 14V4C2 2.9 2.9 2 4 2H11C12.1 2 13 2.9 13 4V14C13 15.1 12.1 16 11 16ZM4 14H11V4H4V14ZM6 12C5.4 12 5 11.6 5 11V7C5 6.4 5.4 6 6 6C6.6 6 7 6.4 7 7V11C7 11.6 6.6 12 6 12Z" fill="black"/>
<path d="M8 11C8 11.6 8.4 12 9 12C9.6 12 10 11.6 10 11V7C10 6.4 9.6 6 9 6C8.4 6 8 6.4 8 7V11Z" fill="black"/>
<path d="M14 2H1C0.447715 2 0 2.44772 0 3C0 3.55228 0.447715 4 1 4H14C14.5523 4 15 3.55228 15 3C15 2.44772 14.5523 2 14 2Z" fill="black"/>
<path d="M8 0H7C6.44772 0 6 0.447715 6 1V2C6 2.55228 6.44772 3 7 3H8C8.55228 3 9 2.55228 9 2V1C9 0.447715 8.55228 0 8 0Z" fill="black"/>
</svg>
