<?xml version="1.0" encoding="UTF-8"?>
<svg width="16px" height="12px" viewBox="0 0 16 12" version="1.1" xmlns="http://www.w3.org/2000/svg" xmlns:xlink="http://www.w3.org/1999/xlink">
    <title>bonus-icon</title>
    <g id="бонусы" stroke="none" stroke-width="1" fill="none" fill-rule="evenodd">
        <g id="Бонусы-с-процентом" transform="translate(-106.000000, -332.000000)" fill="#000000">
            <g id="Group-3-Copy-2" transform="translate(34.000000, 330.000000)">
                <g id="bonus-icon" transform="translate(72.000000, 2.000000)">
                    <path d="M6,0 C9.3137085,-6.08718376e-16 12,2.6862915 12,6 C12,9.3137085 9.3137085,12 6,12 C2.6862915,12 4.05812251e-16,9.3137085 0,6 C-4.05812251e-16,2.6862915 2.6862915,6.08718376e-16 6,0 Z M6,1 C3.23857625,1 1,3.23857625 1,6 C1,8.76142375 3.23857625,11 6,11 C8.76142375,11 11,8.76142375 11,6 C11,3.23857625 8.76142375,1 6,1 Z" id="Combined-Shape"></path>
                    <path d="M12.9087524,8.17124146e-14 C13.7880343,8.15508932e-14 14.6231404,0.189138847 15.3756052,0.528951051 L15.3756387,1 L13.3006265,1 L13.3004464,1.01511643 C13.1711976,1.00510102 13.0405707,1 12.9087524,1 C10.1473287,1 7.90875244,3.23857625 7.90875244,6 C7.90875244,8.76142375 10.1473287,11 12.9087524,11 C13.0405707,11 13.1711976,10.994899 13.3004464,10.9848836 L13.3006265,11 L15.3756387,11 L15.3756052,11.4710489 C14.6360878,11.8050141 13.8167487,11.9934465 12.9541017,11.9998322 L12.8637524,11.999 L12.6838142,11.9958615 C9.47432733,11.8775718 6.90875244,9.23839694 6.90875244,6 C6.90875244,2.6862915 9.59504394,8.2321133e-14 12.9087524,8.17124146e-14 Z" id="Combined-Shape" transform="translate(11.142196, 5.995241) scale(-1, 1) translate(-11.142196, -5.995241) "></path>
                    <path d="M5.58203125,9 C6.45963542,9 7.0703125,8.89192708 7.4140625,8.67578125 C7.91666667,8.36067708 8.16796875,7.87890625 8.16796875,7.23046875 C8.16796875,6.63932292 7.94791667,6.20572917 7.5078125,5.9296875 C7.30989583,5.8046875 7.10611979,5.72395833 6.89648438,5.6875 C6.68684896,5.65104167 6.3203125,5.6328125 5.796875,5.6328125 L5.796875,5.6328125 L5.40625,5.6328125 L5.40625,4.01171875 L7.66015625,4.01171875 L7.66015625,3.21875 L4.2265625,3.21875 L4.2265625,9 L5.58203125,9 Z M5.703125,8.2578125 L5.40625,8.2578125 L5.40625,6.37890625 L5.75390625,6.37890625 C6.16536458,6.37890625 6.47395833,6.45377604 6.6796875,6.60351562 C6.88541667,6.75325521 6.98828125,6.97786458 6.98828125,7.27734375 C6.98828125,7.60546875 6.88085938,7.85091146 6.66601562,8.01367188 C6.45117188,8.17643229 6.13020833,8.2578125 5.703125,8.2578125 L5.703125,8.2578125 Z" id="Б" fill-rule="nonzero"></path>
                </g>
            </g>
        </g>
    </g>
</svg>