<svg width="14" height="16" viewBox="0 0 14 16" fill="none" xmlns="http://www.w3.org/2000/svg">
<g opacity="0.735886">
<path fill-rule="evenodd" clip-rule="evenodd" d="M14 12V1C14 0.4 13.6 0 13 0H2C0.9 0 0 0.9 0 2V3V12V14C0 15.1 0.9 16 2 16H13C13.6 16 14 15.6 14 15C14 14.4 13.6 14 13 14V13C13.6 13 14 12.6 14 12ZM2 2H12V11H2V3V2ZM11 14H2V13H11V14Z" fill="#757575"/>
<path fill-rule="evenodd" clip-rule="evenodd" d="M5 8H9C9.6 8 10 7.6 10 7C10 6.4 9.6 6 9 6H5C4.4 6 4 6.4 4 7C4 7.6 4.4 8 5 8Z" fill="#757575"/>
<path fill-rule="evenodd" clip-rule="evenodd" d="M5 5H9C9.6 5 10 4.6 10 4C10 3.4 9.6 3 9 3H5C4.4 3 4 3.4 4 4C4 4.6 4.4 5 5 5Z" fill="#757575"/>
</g>
</svg>
