<?xml version="1.0" encoding="UTF-8"?>
<svg width="25px" height="25px" viewBox="0 0 25 25" version="1.1" xmlns="http://www.w3.org/2000/svg" xmlns:xlink="http://www.w3.org/1999/xlink">
    <!-- Generator: Sketch 52.5 (67469) - http://www.bohemiancoding.com/sketch -->
    <title>Shape</title>
    <desc>Created with Sketch.</desc>
    <g id="Страница-товара" stroke="none" stroke-width="1" fill="none" fill-rule="evenodd">
        <g id="Artboard-Copy-11" transform="translate(-1268.000000, -1202.000000)" fill="#000000" fill-rule="nonzero">
            <g id="о-товаре" transform="translate(19.000000, 1198.000000)">
                <g id="error?" transform="translate(1248.000000, 4.000000)">
                    <g id="Group-13" transform="translate(1.000000, 0.000000)">
                        <path d="M25,14.0629395 L25,15.6254883 L21.8749023,15.6254883 C21.8749023,16.8599019 21.6217694,18.033376 21.1881621,19.1138786 L23.4343261,20.4568893 L22.6468015,21.8694334 L20.4451702,20.552986 C18.7912122,23.2140067 15.8645583,25.0007813 12.5003906,25.0007813 C9.13544173,25.0007813 6.20878777,23.2140067 4.55482984,20.552986 L2.35319854,21.8694334 L1.56567393,20.4568893 L3.81183787,19.1138786 C3.3774493,18.033376 3.12509766,16.8599019 3.12509766,15.6254883 L0,15.6254883 L0,14.0629395 L3.27900872,14.0629395 C3.47979624,12.9433732 3.87043345,11.8917779 4.42435701,10.9401856 L1.5664552,9.23231976 L2.35397981,7.81899434 L5.35954249,9.6159255 C6.8033376,7.90259071 8.85183912,6.76896153 11.1698803,6.43145098 L7.81977562,0.774242945 L9.10809713,0 L12.5003906,5.72986656 L15.8926841,0 L17.1810057,0.774242945 L13.8473077,6.40410638 C16.15988,6.7486484 18.1982249,7.90415325 19.6404575,9.6159255 L22.6468015,7.81899434 L23.4343261,9.23231976 L20.5764243,10.9401856 C21.1295665,11.8917779 21.520985,12.9433732 21.7209913,14.0629395 L25,14.0629395 Z M12.4996094,7.81274415 C9.95109222,7.81274415 7.71117847,9.05028282 6.28457139,10.9378418 L18.7138661,10.9378418 C17.2880403,9.05028282 15.0473452,7.81274415 12.4996094,7.81274415 Z M19.6529579,12.5003906 L5.34626082,12.5003906 C4.92671646,13.4590143 4.68686521,14.5121723 4.68686521,15.6254883 C4.68686521,19.9396856 8.18463077,23.4382324 12.4996094,23.4382324 C16.8138067,23.4382324 20.3123535,19.9396856 20.3123535,15.6254883 C20.3123535,14.5121723 20.071721,13.4590143 19.6529579,12.5003906 Z" id="Shape"></path>
                    </g>
                </g>
            </g>
        </g>
    </g>
</svg>