<svg width="16" height="16" viewBox="0 0 16 16" fill="none" xmlns="http://www.w3.org/2000/svg">
<path fill-rule="evenodd" clip-rule="evenodd" d="M15 16C15.6 16 16 15.6 16 15V6C16 5.4 15.6 5 15 5H12V1C12 0.4 11.6 0 11 0H1C0.4 0 0 0.4 0 1V15C0 15.6 0.4 16 1 16H15ZM14 14H12V7H14V14ZM9 14H10V2H2V14H3V11C3 10.4 3.4 10 4 10H8C8.6 10 9 10.4 9 11V14ZM7 14H5V12H7V14ZM7 8H5C4.4 8 4 7.6 4 7C4 6.4 4.4 6 5 6H7C7.6 6 8 6.4 8 7C8 7.6 7.6 8 7 8ZM5 5H7C7.6 5 8 4.6 8 4C8 3.4 7.6 3 7 3H5C4.4 3 4 3.4 4 4C4 4.6 4.4 5 5 5Z" fill="black"/>
</svg>
