<?xml version="1.0" encoding="UTF-8"?>
<svg width="16px" height="14px" viewBox="0 0 16 14" version="1.1" xmlns="http://www.w3.org/2000/svg" xmlns:xlink="http://www.w3.org/1999/xlink">
    <title>Combined Shape</title>
    <g id="Page-1" stroke="none" stroke-width="1" fill="none" fill-rule="evenodd">
        <g id="Text" transform="translate(-551.000000, -1077.000000)" fill="#000000">
            <g id="text" transform="translate(50.000000, 0.000000)">
                <g id="link-types" transform="translate(0.000000, 998.000000)">
                    <g id="link" transform="translate(0.000000, 46.000000)">
                        <g id="Group-5-Copy-2" transform="translate(499.000000, 0.000000)">
                            <g id="black" transform="translate(2.000000, 29.000000)">
                                <g id="link">
                                    <path d="M16,5 C16,4.4 15.6,4 15,4 L1,4 C0.4,4 0,4.4 0,5 L0,17 C0,17.6 0.4,18 1,18 L15,18 C15.6,18 16,17.6 16,17 L16,5 L16,5 Z M14,6 L14,8 L2,8 L2,6 L14,6 L14,6 Z M14,10 L14,16 L2,16 L2,10 L14,10 Z M12,12 L10,12 C9.5,12 9,12.5 9,13 C9,13.5 9.5,14 10,14 L12,14 C12.5,14 13,13.5 13,13 C13,12.5 12.5,12 12,12 Z" id="Combined-Shape"></path>
                                </g>
                            </g>
                        </g>
                    </g>
                </g>
            </g>
        </g>
    </g>
</svg>