<?xml version="1.0" encoding="UTF-8"?>
<svg width="14px" height="15px" viewBox="0 0 14 15" version="1.1" xmlns="http://www.w3.org/2000/svg" xmlns:xlink="http://www.w3.org/1999/xlink">
    <title>cart-icon</title>
    <g id="бонусы" stroke="none" stroke-width="1" fill="none" fill-rule="evenodd">
        <g id="Бонусы-с-процентом" transform="translate(-34.000000, -358.000000)" fill="#000000">
            <g id="catalog-item:simple-price-copy-2" transform="translate(30.000000, 23.000000)">
                <g id="tools" transform="translate(4.000000, 335.000000)">
                    <path d="M2.77788846,11.1987522 C3.80870513,11.1987522 4.64434716,12.0343943 4.64434716,13.0652109 C4.64434716,14.0960276 3.80870513,14.9316696 2.77788846,14.9316696 C1.74707178,14.9316696 0.911429752,14.0960276 0.911429752,13.0652109 C0.911429752,12.0343943 1.74707178,11.1987522 2.77788846,11.1987522 Z M11.1769526,11.1987522 C12.2077693,11.1987522 13.0434113,12.0343943 13.0434113,13.0652109 C13.0434113,14.0960276 12.2077693,14.9316696 11.1769526,14.9316696 C10.1461359,14.9316696 9.31049392,14.0960276 9.31049392,13.0652109 C9.31049392,12.0343943 10.1461359,11.1987522 11.1769526,11.1987522 Z M0.538138011,0.0933229352 C1.09807562,-0.0933229352 1.5646903,0.0933229352 1.75133617,0.559937611 L1.75133617,0.559937611 L2.21795085,1.8664587 L6.51080587,1.8664587 C7.07074348,1.8664587 7.44403522,2.23975045 7.44403522,2.79968806 C7.44403522,3.35962567 7.07074348,3.73291741 6.51080587,3.73291741 L6.51080587,3.73291741 L2.96453433,3.73291741 L4.36437836,7.46583482 L11.5502444,7.46583482 L12.2035049,6.06599079 C12.3901508,5.69269905 12.9500884,5.50605318 13.4167031,5.69269905 C13.8833177,5.97266785 14.0699636,6.53260547 13.8833177,6.90589721 L13.8833177,6.90589721 L12.9500884,8.77235591 C12.7634425,9.14564765 12.4834737,9.33229352 12.110182,9.33229352 L12.110182,9.33229352 L3.71111781,9.33229352 C3.33782607,9.33229352 2.96453433,9.05232472 2.87121139,8.77235591 L2.87121139,8.77235591 L0.0715233349,1.30652109 C-0.115122536,0.746583482 0.0715233349,0.279968806 0.538138011,0.0933229352 Z M11.1769526,1.15463195e-14 C11.7368902,1.15463195e-14 12.110182,0.373291741 12.110182,0.933229352 L12.110182,0.933229352 L12.110182,1.8664587 L13.0434113,1.8664587 C13.6033489,1.8664587 13.9766407,2.23975045 13.9766407,2.79968806 C13.9766407,3.35962567 13.6033489,3.73291741 13.0434113,3.73291741 L13.0434113,3.73291741 L12.110182,3.73291741 L12.110182,4.66614676 C12.110182,5.22608437 11.7368902,5.59937611 11.1769526,5.59937611 C10.617015,5.59937611 10.2437233,5.22608437 10.2437233,4.66614676 L10.2437233,4.66614676 L10.2437233,3.73291741 L9.31049392,3.73291741 C8.75055631,3.73291741 8.37726457,3.35962567 8.37726457,2.79968806 C8.37726457,2.23975045 8.75055631,1.8664587 9.31049392,1.8664587 L9.31049392,1.8664587 L10.2437233,1.8664587 L10.2437233,0.933229352 C10.2437233,0.373291741 10.617015,1.15463195e-14 11.1769526,1.15463195e-14 Z" id="cart-icon"></path>
                </g>
            </g>
        </g>
    </g>
</svg>