<?xml version="1.0" encoding="UTF-8"?>
<svg width="15px" height="16px" viewBox="0 0 15 16" version="1.1" xmlns="http://www.w3.org/2000/svg" xmlns:xlink="http://www.w3.org/1999/xlink">
    <!-- Generator: Sketch 43.2 (39069) - http://www.bohemiancoding.com/sketch -->
    <title>Combined Shape</title>
    <desc>Created with Sketch.</desc>
    <defs></defs>
    <g id="product-page" stroke="none" stroke-width="1" fill="none" fill-rule="evenodd">
        <g id="rebuild:product-copy-3" transform="translate(-1192.000000, -352.000000)" fill="#FFFFFF">
            <g id="content" transform="translate(81.000000, -182.000000)">
                <g id="intro-copy" transform="translate(28.000000, 0.000000)">
                    <g id="block" transform="translate(609.000000, 0.000000)">
                        <g id="Group-9" transform="translate(259.000000, 522.000000)">
                            <path d="M224.976641,16 C224.376641,16 223.976641,15.6 223.976641,15 C223.976641,14.4 224.376641,14 224.976641,14 L225.976641,14 L225.976641,13 C225.976641,12.4 226.376641,12 226.976641,12 C227.576641,12 227.976641,12.4 227.976641,13 L227.976641,14 L228.976641,14 C229.576641,14 229.976641,14.4 229.976641,15 C229.976641,15.6 229.576641,16 228.976641,16 L227.976641,16 L227.976641,17 C227.976641,17.6 227.576641,18 226.976641,18 C226.376641,18 225.976641,17.6 225.976641,17 L225.976641,16 L224.976641,16 Z M229.376641,18.1 C229.876641,18.4 230.076641,19 229.876641,19.4 L228.876641,21.4 C228.676641,21.8 228.376641,22 227.976641,22 L218.976641,22 C218.576641,22 218.176641,21.7 218.076641,21.4 L215.076641,13.4 C214.876641,12.8 215.076641,12.3 215.576641,12.1 C216.176641,11.9 216.676641,12.1 216.876641,12.6 L217.376641,14 L221.976641,14 C222.576641,14 222.976641,14.4 222.976641,15 C222.976641,15.6 222.576641,16 221.976641,16 L218.176641,16 L219.676641,20 L227.376641,20 L228.076641,18.5 C228.276641,18.1 228.876641,17.9 229.376641,18.1 Z M217.976641,28 C216.872071,28 215.976641,27.1045695 215.976641,26 C215.976641,24.8954305 216.872071,24 217.976641,24 C219.08121,24 219.976641,24.8954305 219.976641,26 C219.976641,27.1045695 219.08121,28 217.976641,28 Z M226.976641,28 C225.872071,28 224.976641,27.1045695 224.976641,26 C224.976641,24.8954305 225.872071,24 226.976641,24 C228.08121,24 228.976641,24.8954305 228.976641,26 C228.976641,27.1045695 228.08121,28 226.976641,28 Z" id="Combined-Shape"></path>
                        </g>
                    </g>
                </g>
            </g>
        </g>
    </g>
</svg>