<?xml version="1.0" encoding="UTF-8"?>
<svg width="12px" height="13px" viewBox="0 0 12 13" version="1.1" xmlns="http://www.w3.org/2000/svg" xmlns:xlink="http://www.w3.org/1999/xlink">
    <!-- Generator: Sketch 52.5 (67469) - http://www.bohemiancoding.com/sketch -->
    <title>Shape</title>
    <desc>Created with Sketch.</desc>
    <g id="icons" stroke="none" stroke-width="1" fill="none" fill-rule="evenodd">
        <g id="MAXICONS2_documents" fill="#000000">
            <g id="Слой_1">
                <path d="M1,13 C0.4,13 0,12.6 0,12 L0,1 C0,0.4 0.4,0 1,0 L11,0 C11.6,0 12,0.4 12,1 L12,12 C12,12.6 11.6,13 11,13 L1,13 Z M10,11 L10,2 L2,2 L2,11 L10,11 Z M4,9 C3.4,9 3,8.6 3,8 C3,7.4 3.4,7 4,7 L8,7 C8.6,7 9,7.4 9,8 C9,8.6 8.6,9 8,9 L4,9 Z M4,6 C3.4,6 3,5.6 3,5 C3,4.4 3.4,4 4,4 L8,4 C8.6,4 9,4.4 9,5 C9,5.6 8.6,6 8,6 L4,6 Z" id="Shape"></path>
            </g>
        </g>
    </g>
</svg>