<svg width="12" height="12" viewBox="0 0 12 12" fill="none" xmlns="http://www.w3.org/2000/svg">
<path d="M12 1.04132C12 1.17355 11.9752 1.30579 11.9256 1.43802C11.876 1.55372 11.8017 1.67769 11.7025 1.80992L7.4876 6L11.7025 10.1653C11.8017 10.281 11.876 10.405 11.9256 10.5372C11.9752 10.6529 12 10.7934 12 10.9587C12 11.1074 11.9752 11.2397 11.9256 11.3554C11.876 11.4876 11.8017 11.6033 11.7025 11.7025C11.6033 11.8017 11.4959 11.876 11.3802 11.9256C11.2645 11.9752 11.124 12 10.9587 12C10.8264 12 10.6942 11.9752 10.562 11.9256L10.1653 11.7025L6 7.4876L1.80992 11.7025C1.71074 11.8017 1.59504 11.876 1.46281 11.9256C1.34711 11.9752 1.20661 12 1.04132 12C0.892562 12 0.760331 11.9752 0.644628 11.9256C0.512397 11.876 0.396694 11.8017 0.297521 11.7025C0.198347 11.6033 0.123967 11.4876 0.0743802 11.3554C0.0247934 11.2397 0 11.1074 0 10.9587C0 10.843 0.0247934 10.7107 0.0743802 10.562L0.272727 10.1653L4.5124 6L0.272727 1.80992L0.0743802 1.38843C0.0247934 1.2562 0 1.1405 0 1.04132C0 0.876033 0.0247934 0.735537 0.0743802 0.619835C0.123967 0.504132 0.198347 0.396694 0.297521 0.297521C0.396694 0.198347 0.512397 0.123967 0.644628 0.0743802C0.77686 0.0247934 0.909091 0 1.04132 0L1.41322 0.0495868C1.56198 0.115702 1.69421 0.190083 1.80992 0.272727L6 4.5124L10.1653 0.272727L10.5868 0.0495868L10.9587 0C11.124 0 11.2645 0.0247934 11.3802 0.0743802C11.4959 0.123967 11.6033 0.198347 11.7025 0.297521C11.8017 0.396694 11.876 0.504132 11.9256 0.619835C11.9752 0.735537 12 0.876033 12 1.04132Z" fill="black"/>
</svg>
