<?xml version="1.0" encoding="UTF-8"?>
<svg width="16px" height="16px" viewBox="0 0 16 16" version="1.1" xmlns="http://www.w3.org/2000/svg" xmlns:xlink="http://www.w3.org/1999/xlink">
    <!-- Generator: Sketch 52.5 (67469) - http://www.bohemiancoding.com/sketch -->
    <title>Shape</title>
    <desc>Created with Sketch.</desc>
    <g id="Страница-товара" stroke="none" stroke-width="1" fill="none" fill-rule="evenodd">
        <g id="Artboard-Copy-13" transform="translate(-103.000000, -1371.000000)" fill="#000000">
            <g id="отзыв-copy-2" transform="translate(20.000000, 1249.000000)">
                <g id="bottom-bar" transform="translate(83.000000, 119.000000)">
                    <path d="M14,13 C14,13.6 13.6,14 13,14 L12,14 C11.4,14 11,14.4 11,15 L11,15.5 L9,14.3 L8.6,14 L8,14 L3,14 C2.4,14 2,13.6 2,13 L2,6 C2,5.4 2.4,5 3,5 L13,5 C13.6,5 14,5.4 14,6 L14,13 L14,13 Z M14,3 L2,3 C0.9,3 0,3.9 0,5 L0,14 C0,15.1 0.9,16 2,16 L8,16 L11.4,18.7 C12.1,19.2 13,18.8 13,17.9 L13,16 L14,16 C15.1,16 16,15.1 16,14 L16,5 C16,3.9 15.1,3 14,3 L14,3 Z" id="Shape"></path>
                </g>
            </g>
        </g>
    </g>
</svg>