<svg width="16" height="16" viewBox="0 0 16 16" fill="none" xmlns="http://www.w3.org/2000/svg">
<path d="M5.7 8.7L7 7.4L8.3 8.7C8.5 8.9 8.7 9 9 9C9.3 9 9.5 8.9 9.7 8.7L11.7 6.7C12.1 6.3 12.1 5.7 11.7 5.3C11.3 4.9 10.7 4.9 10.3 5.3L9 6.6L7.7 5.3C7.3 4.9 6.7 4.9 6.3 5.3L4.3 7.3C3.9 7.7 3.9 8.3 4.3 8.7C4.7 9.1 5.3 9.1 5.7 8.7Z" fill="black"/>
<path fill-rule="evenodd" clip-rule="evenodd" d="M9 1H15C15.6 1 16 1.4 16 2C16 2.6 15.6 3 15 3V12C15 12.6 14.6 13 14 13H9V14H11C11.6 14 12 14.4 12 15C12 15.6 11.6 16 11 16H5C4.4 16 4 15.6 4 15C4 14.4 4.4 14 5 14H7V13H2C1.4 13 1 12.6 1 12V3C0.4 3 0 2.6 0 2C0 1.4 0.4 1 1 1H7C7 0.4 7.4 0 8 0C8.6 0 9 0.4 9 1ZM3 3V11H13V3H3Z" fill="black"/>
</svg>
