<?xml version="1.0" encoding="UTF-8"?>
<svg width="16px" height="16px" viewBox="0 0 16 16" version="1.1" xmlns="http://www.w3.org/2000/svg" xmlns:xlink="http://www.w3.org/1999/xlink">
    <title>donotenter</title>
    <g id="Ui-кит" stroke="none" stroke-width="1" fill="none" fill-rule="evenodd">
        <g id="Icon" transform="translate(-626.000000, -146.000000)" fill="#000000" fill-rule="nonzero">
            <g id="icons" transform="translate(50.000000, 0.000000)">
                <g id="grid" transform="translate(0.000000, 146.000000)">
                    <g id="MAXICONS1_donotenter" transform="translate(576.000000, 0.000000)">
                        <path d="M8,0 C3.6,0 0,3.6 0,8 C0,12.4 3.6,16 8,16 C12.4,16 16,12.4 16,8 C16,3.6 12.4,0 8,0 Z M14,8 C14,9.3 13.6,10.5 12.9,11.5 L4.5,3.1 C5.5,2.4 6.7,2 8,2 C11.3,2 14,4.7 14,8 Z M2,8 C2,6.7 2.4,5.5 3.1,4.5 L11.5,12.9 C10.5,13.6 9.3,14 8,14 C4.7,14 2,11.3 2,8 Z" id="donotenter"></path>
                    </g>
                </g>
            </g>
        </g>
    </g>
</svg>