<svg width="16" height="16" viewBox="0 0 16 16" fill="none" xmlns="http://www.w3.org/2000/svg">
<path fill-rule="evenodd" clip-rule="evenodd" d="M7.2999 12.7C7.4999 12.9 7.6999 13 7.9999 13C8.2999 13 8.4999 12.9 8.6999 12.7L13.6999 7.7C13.9999 7.4 14.0999 7 13.8999 6.6C13.7999 6.2 13.3999 6 12.9999 6H10.9999V1C10.9999 0.4 10.5999 0 9.9999 0H5.9999C5.3999 0 4.9999 0.4 4.9999 1V6H2.9999C2.5999 6 2.1999 6.2 2.0999 6.6C1.8999 7 1.9999 7.4 2.2999 7.7L7.2999 12.7ZM7.9999 10.6L5.3999 8H5.9999C6.5999 8 6.9999 7.6 6.9999 7V2H8.9999V7C8.9999 7.6 9.3999 8 9.9999 8H10.5999L7.9999 10.6Z" fill="black"/>
<path d="M15 16H1C0.4 16 0 15.6 0 15V12C0 11.4 0.4 11 1 11C1.6 11 2 11.4 2 12V14H14V12C14 11.4 14.4 11 15 11C15.6 11 16 11.4 16 12V15C16 15.6 15.6 16 15 16Z" fill="black"/>
</svg>
