<?xml version="1.0" encoding="UTF-8"?>
<svg width="16px" height="16px" viewBox="0 0 16 16" version="1.1" xmlns="http://www.w3.org/2000/svg" xmlns:xlink="http://www.w3.org/1999/xlink">
    <title>drag icon</title>
    <g id="Добавление-товара" stroke="none" stroke-width="1" fill="none" fill-rule="evenodd">
        <g id="Создание-товара-с-нуля,-часть-данных-заполнено" transform="translate(-497.000000, -1674.000000)" fill="#000000" fill-rule="nonzero">
            <g id="Group-8" transform="translate(330.000000, 109.000000)">
                <g id="sideblock" transform="translate(0.000000, 938.000000)">
                    <g id="el" transform="translate(14.000000, 398.000000)">
                        <path d="M160.3,229.3 C160.7,228.9 161.3,228.9 161.7,229.3 L161.7,229.3 L163.7,231.3 C163.9,231.5 164,231.8 164,232 C164,232.2 163.9,232.5 163.7,232.7 C163.3,233.1 162.7,233.1 162.3,232.7 L162.3,232.7 L162,232.4 L162,235.999 L165.6,236 L165.3,235.7 C164.9,235.3 164.9,234.7 165.3,234.3 C165.7,233.9 166.3,233.9 166.7,234.3 L166.7,234.3 L168.7,236.3 C169.1,236.7 169.1,237.3 168.7,237.7 L168.7,237.7 L166.7,239.7 C166.5,239.9 166.2,240 166,240 C165.8,240 165.5,239.9 165.3,239.7 C164.9,239.3 164.9,238.7 165.3,238.3 L165.3,238.3 L165.6,238 L162,238 L162,241.6 L162.3,241.3 C162.7,240.9 163.3,240.9 163.7,241.3 C163.9,241.5 164,241.7 164,242 C164,242.3 163.9,242.5 163.7,242.7 L163.7,242.7 L161.7,244.7 C161.3,245.1 160.7,245.1 160.3,244.7 L160.3,244.7 L158.3,242.7 C157.9,242.3 157.9,241.7 158.3,241.3 C158.7,240.9 159.3,240.9 159.7,241.3 L159.7,241.3 L160,241.6 L160,238 L156.4,238 L156.7,238.3 C157.1,238.7 157.1,239.3 156.7,239.7 C156.5,239.9 156.3,240 156,240 C155.7,240 155.5,239.9 155.3,239.7 L155.3,239.7 L153.3,237.7 C152.9,237.3 152.9,236.7 153.3,236.3 L153.3,236.3 L155.3,234.3 C155.7,233.9 156.3,233.9 156.7,234.3 C157.1,234.7 157.1,235.3 156.7,235.7 L156.7,235.7 L156.4,236 L160,235.999 L160,232.4 L159.7,232.7 C159.3,233.1 158.7,233.1 158.3,232.7 C157.9,232.3 157.9,231.7 158.3,231.3 L158.3,231.3 Z" id="drag-icon"></path>
                    </g>
                </g>
            </g>
        </g>
    </g>
</svg>