<svg width="16" height="19" viewBox="0 0 16 19" fill="none" xmlns="http://www.w3.org/2000/svg">
<path d="M4.99165 7.36505C4.99165 6.81277 5.43937 6.36505 5.99165 6.36505C6.54394 6.36505 6.99165 6.81277 6.99165 7.36505V8.36505C6.99165 8.91734 6.54394 9.36505 5.99165 9.36505C5.43937 9.36505 4.99165 8.91734 4.99165 8.36505V7.36505Z" fill="black"/>
<path d="M9.09517 7.36451C9.09517 6.81223 9.54288 6.36451 10.0952 6.36451C10.6475 6.36451 11.0952 6.81223 11.0952 7.36451V8.36451C11.0952 8.9168 10.6475 9.36451 10.0952 9.36451C9.54288 9.36451 9.09517 8.9168 9.09517 8.36451V7.36451Z" fill="black"/>
<path fill-rule="evenodd" clip-rule="evenodd" d="M2.78587 18.1814L2.70331 18.1814C1.97562 18.1813 1.27866 17.8879 0.770022 17.3674C0.268331 16.854 -0.00833038 16.1626 0.000191175 15.4457V7.99981C0.000191175 3.58164 3.58183 0 8 0C12.4182 0 15.9998 3.58164 15.9998 7.99981V15.4456C16.0083 16.1626 15.7317 16.854 15.23 17.3674L13.7996 15.9695C13.932 15.834 14.0042 15.6508 13.9998 15.4614V7.99981C13.9998 4.68621 11.3136 2 8 2C4.6864 2 2.00019 4.68621 2.00019 7.99981V15.4614C1.99578 15.6508 2.06797 15.834 2.2004 15.9695C2.33283 16.105 2.51433 16.1814 2.70381 16.1814L2.73868 16.1814C3.10947 16.1638 3.45237 15.9793 3.67137 15.6796C3.72404 15.6178 3.77973 15.5593 3.83814 15.5041C3.85348 15.4897 3.86902 15.4754 3.88473 15.4614C3.9207 15.4293 3.95762 15.3985 3.99543 15.3689C3.99701 15.3677 3.9986 15.3664 4.00019 15.3652C4.38938 15.0625 4.87161 14.8941 5.37314 14.8941C6.02803 14.8941 6.65002 15.1812 7.0749 15.6796C7.29434 15.9835 7.64638 16.1635 8.02124 16.1635C8.39609 16.1635 8.74813 15.9835 8.96757 15.6796C9.39143 15.1795 10.0138 14.8912 10.6693 14.8912C11.153 14.8912 11.6187 15.0482 11.9998 15.3313C12.0024 15.3333 12.005 15.3352 12.0076 15.3372C12.0597 15.3762 12.1102 15.4177 12.159 15.4614C12.1742 15.4751 12.1893 15.489 12.2043 15.5032C12.2627 15.5586 12.3184 15.6175 12.3711 15.6796C12.5953 15.9767 12.9312 16.1814 13.2823 16.1814H13.2962C13.4857 16.1814 13.6672 16.105 13.7996 15.9695L15.23 17.3674C14.7212 17.888 14.0241 18.1814 13.2962 18.1814H13.2823C12.196 18.1814 11.3423 17.5954 10.8326 16.9588C10.7895 16.9157 10.7308 16.8912 10.6693 16.8912C10.61 16.8912 10.5534 16.914 10.5107 16.9543C9.91185 17.7159 8.9949 18.1635 8.02124 18.1635C7.04911 18.1635 6.13352 17.7173 5.53455 16.9579C5.49102 16.9172 5.4334 16.8941 5.37314 16.8941C5.31235 16.8941 5.25424 16.9176 5.21058 16.9589C4.63306 17.6884 3.76689 18.1348 2.8335 18.1791L2.78587 18.1814Z" fill="black"/>
</svg>
