<svg width="75" height="87" viewBox="0 0 75 87" fill="none" xmlns="http://www.w3.org/2000/svg">
<path d="M20 29.8011C20 28.6966 20.8954 27.8011 22 27.8011C23.1046 27.8011 24 28.6966 24 29.8011V33.8011C24 34.9057 23.1046 35.8011 22 35.8011C20.8954 35.8011 20 34.9057 20 33.8011V29.8011Z" fill="black"/>
<path d="M49 29.8011C49 28.6966 49.8954 27.8011 51 27.8011C52.1046 27.8011 53 28.6966 53 29.8011V33.8011C53 34.9057 52.1046 35.8011 51 35.8011C49.8954 35.8011 49 34.9057 49 33.8011V29.8011Z" fill="black"/>
<path fill-rule="evenodd" clip-rule="evenodd" d="M7.26827 86.5855L6.99855 86.5854C5.11454 86.5855 3.31004 85.8259 1.9932 84.4784C0.685252 83.1401 -0.031811 81.3341 0.00108382 79.4641V37.0938C0.00108382 16.6075 16.6086 0 37.0949 0C57.5813 0 74.1887 16.6075 74.1887 37.0938V79.4639C74.2216 81.334 73.5046 83.14 72.1966 84.4784C70.8796 85.8261 69.0748 86.5857 67.1904 86.5854H67.1115C63.9869 86.5854 61.2919 84.8221 59.598 82.6186C57.7606 80.4834 55.0827 79.2539 52.2633 79.2539C49.4525 79.2539 46.7823 80.476 44.9454 82.5992C43.1296 85.0412 40.264 86.4839 37.2156 86.4839C34.1688 86.4839 31.3047 85.0428 29.4887 82.6032C27.6462 80.4874 24.9768 79.2708 22.1678 79.2708C19.3566 79.2708 16.6851 80.4893 14.8424 82.6083C13.0598 84.9825 10.3099 86.4411 7.33975 86.5821L7.26827 86.5855ZM12.4976 80.734C11.253 82.4371 9.30452 83.4854 7.19751 83.5854L6.99936 83.5854C5.92264 83.5857 4.89132 83.1517 4.13876 82.3816C3.38621 81.6116 2.97604 80.5706 3.00108 79.4941V37.0938C3.00108 18.2643 18.2654 3 37.0949 3C55.9244 3 71.1887 18.2643 71.1887 37.0938V79.4941C71.2138 80.5706 70.8036 81.6116 70.051 82.3816C69.2985 83.1517 68.2672 83.5857 67.1904 83.5854H67.1115C65.1165 83.5854 63.2075 82.4222 61.9336 80.734C59.525 77.8923 55.9884 76.2539 52.2633 76.2539C48.5383 76.2539 45.0017 77.8923 42.5931 80.734C41.3461 82.4609 39.3457 83.4839 37.2156 83.4839C35.0855 83.4839 33.085 82.4609 31.838 80.734C29.4236 77.902 25.8892 76.2708 22.1678 76.2708C18.4464 76.2708 14.9119 77.902 12.4976 80.734Z" fill="black"/>
</svg>
