<svg width="18" height="16" viewBox="0 0 18 16" fill="none" xmlns="http://www.w3.org/2000/svg">
<path fill-rule="evenodd" clip-rule="evenodd" d="M0.877903 16H17.1221C17.7974 16 18.2191 15.2585 17.8807 14.6661L9.75862 0.44342C9.42099 -0.147808 8.57901 -0.147806 8.24138 0.443423L0.119277 14.6661C-0.1654 15.1646 0.0880003 15.7686 0.577787 15.9476C0.670101 15.9814 0.770813 16 0.877903 16ZM9 3.14804L2.80278 14H15.1972L9 3.14804Z" fill="#E30613"/>
<path d="M8 12C8 11.4477 8.44772 11 9 11C9.55228 11 10 11.4477 10 12C10 12.5523 9.55228 13 9 13C8.44772 13 8 12.5523 8 12Z" fill="#E30613"/>
<path d="M8 7C8 6.44772 8.44772 6 9 6C9.55228 6 10 6.44772 10 7V9C10 9.55228 9.55228 10 9 10C8.44772 10 8 9.55228 8 9V7Z" fill="#E30613"/>
</svg>
