<?xml version="1.0" encoding="UTF-8"?>
<svg width="16px" height="12px" viewBox="0 0 16 12" version="1.1" xmlns="http://www.w3.org/2000/svg" xmlns:xlink="http://www.w3.org/1999/xlink">
    <!-- Generator: Sketch 59.1 (86144) - https://sketch.com -->
    <title>Group 3</title>
    <desc>Created with Sketch.</desc>
    <g id="icons" stroke="none" stroke-width="1" fill="none" fill-rule="evenodd">
        <g id="Artboard" transform="translate(-236.000000, -346.000000)" fill="#000000">
            <g id="Group-3" transform="translate(236.000000, 345.620803)">
                <g id="MAXICONS2_view-Copy" transform="translate(0.000000, 0.379197)">
                    <g id="Слой_1">
                        <g id="Group">
                            <path d="M15.7,5.3 C14.6,4.1 12.5,1.9 12.4,1.7 L12.4,1.7 L12.4,1.7 C11.3,0.7 9.7,0 8,0 C6.3,0 4.7,0.7 3.6,1.8 L3.6,1.8 L3.6,1.8 C3.4,1.9 1.3,4.2 0.3,5.3 C-8.8817842e-16,5.7 -8.8817842e-16,6.2 0.3,6.6 L3.1,9.7 C4.3,11.1 6,12 8,12 C10,12 11.7,11.1 12.9,9.7 L15.7,6.6 C16.1,6.3 16.1,5.7 15.7,5.3 L15.7,5.3 Z M11.4,8.4 L11.4,8.4 L11.4,8.4 C10.5,9.4 9.3,10 8,10 C6.7,10 5.5,9.4 4.6,8.5 L4.6,8.5 L4.6,8.5 L2.4,6 C4.2,4.1 4.9,3.3 5,3.2 L5,3.2 C5.8,2.4 6.9,2 8,2 C9.1,2 10.2,2.4 11,3.1 L11,3.1 C11.1,3.2 11.8,4 13.6,5.9 L11.4,8.4 L11.4,8.4 Z" id="Shape"></path>
                        </g>
                    </g>
                </g>
                <rect id="Rectangle" transform="translate(8.057298, 6.500000) rotate(-310.000000) translate(-8.057298, -6.500000) " x="7.05729752" y="-2" width="2" height="17" rx="1"></rect>
                <path d="M5,6.37919693 C5,8.07919693 6.3,9.37919693 8,9.37919693 C9.7,9.37919693 11,8.07919693 11,6.37919693 C11,4.67919693 9.7,3.37919693 8,3.37919693 C6.3,3.37919693 5,4.67919693 5,6.37919693 Z" id="Shape"></path>
            </g>
        </g>
    </g>
</svg>