<svg width="16" height="16" viewBox="0 0 16 16" fill="none" xmlns="http://www.w3.org/2000/svg">
<path fill-rule="evenodd" clip-rule="evenodd" d="M4.92476 8C4.92476 6.3 6.22476 5 7.92476 5C9.62475 5 10.9248 6.3 10.9248 8C10.9248 9.7 9.62475 11 7.92476 11C6.22476 11 4.92476 9.7 4.92476 8ZM6.92476 8C6.92476 8.6 7.32476 9 7.92476 9C8.52476 9 8.92476 8.6 8.92476 8C8.92476 7.4 8.52476 7 7.92476 7C7.32476 7 6.92476 7.4 6.92476 8Z" fill="#7D7D7D"/>
<path fill-rule="evenodd" clip-rule="evenodd" d="M14.3025 5.87779C14.7803 6.3889 15.2581 6.9 15.6248 7.3C16.0248 7.7 16.0248 8.3 15.6248 8.6L12.8248 11.7C11.6248 13.1 9.92476 14 7.92476 14C5.92476 14 4.22476 13.1 3.02476 11.7L0.224756 8.6C-0.0752441 8.2 -0.0752441 7.7 0.224756 7.3C1.22476 6.2 3.32476 3.9 3.52476 3.8C4.62476 2.7 6.22476 2 7.92476 2C9.62476 2 11.2248 2.7 12.3248 3.7C12.3914 3.83333 13.347 4.85556 14.3025 5.87779ZM7.92476 12C9.22476 12 10.4248 11.4 11.3248 10.4L13.5248 7.9C12.1918 6.49298 11.4621 5.6892 11.1325 5.3262C11.017 5.19902 10.9507 5.12595 10.9248 5.1C10.1248 4.4 9.02476 4 7.92476 4C6.82476 4 5.72476 4.4 4.92476 5.2C4.89881 5.22595 4.83247 5.29902 4.717 5.4262C4.38745 5.78919 3.65772 6.59298 2.32476 8L4.52476 10.5C5.42476 11.4 6.62476 12 7.92476 12Z" fill="#7D7D7D"/>
</svg>
