<svg width="16" height="16" viewBox="0 0 16 16" fill="none" xmlns="http://www.w3.org/2000/svg">
<g opacity="0.735886">
<path fill-rule="evenodd" clip-rule="evenodd" d="M8 0C3.6 0 0 3.6 0 8C0 12.4 3.6 16 8 16C12.4 16 16 12.4 16 8C16 3.6 12.4 0 8 0ZM8 14C4.7 14 2 11.3 2 8C2 4.7 4.7 2 8 2C11.3 2 14 4.7 14 8C14 11.3 11.3 14 8 14Z" fill="#757575"/>
<path fill-rule="evenodd" clip-rule="evenodd" d="M11 7H9V5C9 4.4 8.6 4 8 4C7.4 4 7 4.4 7 5V7H5C4.4 7 4 7.4 4 8C4 8.6 4.4 9 5 9H7V11C7 11.6 7.4 12 8 12C8.6 12 9 11.6 9 11V9H11C11.6 9 12 8.6 12 8C12 7.4 11.6 7 11 7Z" fill="#757575"/>
</g>
</svg>
