<?xml version="1.0" encoding="UTF-8"?>
<svg width="16px" height="16px" viewBox="0 0 16 16" version="1.1" xmlns="http://www.w3.org/2000/svg" xmlns:xlink="http://www.w3.org/1999/xlink">
    <title>Group</title>
    <g id="Page-1" stroke="none" stroke-width="1" fill="none" fill-rule="evenodd">
        <g id="Input" transform="translate(-64.000000, -2139.000000)" fill="#000000">
            <g id="form-entities" transform="translate(50.000000, 0.000000)">
                <g id="select" transform="translate(0.000000, 855.000000)">
                    <g id="file-upload" transform="translate(0.000000, 1242.000000)">
                        <g id="Group" transform="translate(14.000000, 42.000000)">
                            <path d="M8,13 C7.7,13 7.5,12.9 7.3,12.7 L2.3,7.7 C2,7.4 1.9,7 2.1,6.6 C2.2,6.2 2.6,6 3,6 L5,6 L5,1 C5,0.4 5.4,0 6,0 L10,0 C10.6,0 11,0.4 11,1 L11,6 L13,6 C13.4,6 13.8,6.2 13.9,6.6 C14.1,7 14,7.4 13.7,7.7 L8.7,12.7 C8.5,12.9 8.3,13 8,13 L8,13 Z M5.4,8 L8,10.6 L10.6,8 L10,8 C9.4,8 9,7.6 9,7 L9,2 L7,2 L7,7 C7,7.6 6.6,8 6,8 L5.4,8 L5.4,8 Z" id="Shape" transform="translate(8.000000, 6.500000) scale(1, -1) translate(-8.000000, -6.500000) "></path>
                            <path d="M15,16 L1,16 C0.4,16 0,15.6 0,15 L0,12 C0,11.4 0.4,11 1,11 C1.6,11 2,11.4 2,12 L2,14 L14,14 L14,12 C14,11.4 14.4,11 15,11 C15.6,11 16,11.4 16,12 L16,15 C16,15.6 15.6,16 15,16 L15,16 Z" id="Shape"></path>
                        </g>
                    </g>
                </g>
            </g>
        </g>
    </g>
</svg>