<?xml version="1.0" encoding="UTF-8"?>
<svg width="16px" height="16px" viewBox="0 0 16 16" version="1.1" xmlns="http://www.w3.org/2000/svg" xmlns:xlink="http://www.w3.org/1999/xlink">
    <title>login</title>
    <g id="Ui-кит" stroke="none" stroke-width="1" fill="none" fill-rule="evenodd">
        <g id="Icon" transform="translate(-626.000000, -385.000000)" fill="#000000" fill-rule="nonzero">
            <g id="icons" transform="translate(50.000000, 0.000000)">
                <g id="grid" transform="translate(0.000000, 146.000000)">
                    <g id="login" transform="translate(576.000000, 239.000000)">
                        <path d="M14.1,5.2 C13.7,2.3 11.1,0 8,0 C4.9,0 2.3,2.3 1.9,5.2 C0.8,5.6 0,6.7 0,8 L0,13 C0,14.7 1.3,16 3,16 L13,16 C14.7,16 16,14.7 16,13 L16,8 C16,6.7 15.2,5.6 14.1,5.2 Z M8,2 C9.9,2 11.5,3.3 12,5 L4,5 C4.5,3.3 6.1,2 8,2 Z M14,13 C14,13.6 13.6,14 13,14 L3,14 C2.4,14 2,13.6 2,13 L2,8 C2,7.4 2.4,7 3,7 L13,7 C13.6,7 14,7.4 14,8 L14,13 Z" id="Shape"></path>
                        <path d="M8,8 C6.9,8 6,8.9 6,10 C6,10.7 6.4,11.4 7,11.7 L7,12 C7,12.6 7.4,13 8,13 C8.6,13 9,12.6 9,12 L9,11.7 C9.6,11.4 10,10.7 10,10 C10,8.9 9.1,8 8,8 Z" id="Path"></path>
                    </g>
                </g>
            </g>
        </g>
    </g>
</svg>