<?xml version="1.0" encoding="UTF-8"?>
<svg width="9px" height="12px" viewBox="0 0 9 12" version="1.1" xmlns="http://www.w3.org/2000/svg" xmlns:xlink="http://www.w3.org/1999/xlink">
    <!-- Generator: Sketch 51.2 (57519) - http://www.bohemiancoding.com/sketch -->
    <title>Combined Shape</title>
    <desc>Created with Sketch.</desc>
    <defs></defs>
    <g id="Главная" stroke="none" stroke-width="1" fill="none" fill-rule="evenodd">
        <g id="главная-copy-38" transform="translate(-19.000000, -9.000000)" fill="#000000">
            <g id="header" transform="translate(-3.000000, 6.000000)">
                <g id="submenu" transform="translate(22.000000, 0.000000)">
                    <g id="left">
                        <g id="city">
                            <g id="Group" transform="translate(0.000000, 3.000000)">
                                <path d="M0,4.5 C0,2.025 2.025,0 4.5,0 C6.975,0 9,2.025 9,4.5 C9,5.475 8.7,6.375 8.1,7.125 C8.1,7.2 8.1,7.2 8.1,7.2 L5.1,11.7 C4.95,11.85 4.725,12 4.5,12 C4.275,12 4.05,11.85 3.825,11.7 L0.825,7.2 C0.825,7.125 0.825,7.125 0.825,7.125 C0.3,6.375 0,5.475 0,4.5 Z M4.5,6.75 C5.74264069,6.75 6.75,5.74264069 6.75,4.5 C6.75,3.25735931 5.74264069,2.25 4.5,2.25 C3.25735931,2.25 2.25,3.25735931 2.25,4.5 C2.25,5.74264069 3.25735931,6.75 4.5,6.75 Z" id="Combined-Shape"></path>
                            </g>
                        </g>
                    </g>
                </g>
            </g>
        </g>
    </g>
</svg>