<?xml version="1.0" encoding="UTF-8"?>
<svg width="23px" height="5px" viewBox="0 0 23 5" version="1.1" xmlns="http://www.w3.org/2000/svg" xmlns:xlink="http://www.w3.org/1999/xlink">
    <title>icon/more</title>
    <g id="Symbols" stroke="none" stroke-width="1" fill="none" fill-rule="evenodd">
        <g id="table-row/base" transform="translate(-1542.000000, -16.000000)" fill="#818181">
            <path d="M1544.5,16 C1545.88071,16 1547,17.1192881 1547,18.5 C1547,19.8807119 1545.88071,21 1544.5,21 C1543.11929,21 1542,19.8807119 1542,18.5 C1542,17.1192881 1543.11929,16 1544.5,16 Z M1553.5,16 C1554.88071,16 1556,17.1192881 1556,18.5 C1556,19.8807119 1554.88071,21 1553.5,21 C1552.11929,21 1551,19.8807119 1551,18.5 C1551,17.1192881 1552.11929,16 1553.5,16 Z M1562.5,16 C1563.88071,16 1565,17.1192881 1565,18.5 C1565,19.8807119 1563.88071,21 1562.5,21 C1561.11929,21 1560,19.8807119 1560,18.5 C1560,17.1192881 1561.11929,16 1562.5,16 Z" id="icon/more"></path>
        </g>
    </g>
</svg>