<?xml version="1.0" encoding="UTF-8"?>
<svg width="14px" height="16px" viewBox="0 0 14 16" version="1.1" xmlns="http://www.w3.org/2000/svg" xmlns:xlink="http://www.w3.org/1999/xlink">
    <title>document</title>
    <g id="Добавление-товара" stroke="none" stroke-width="1" fill="none" fill-rule="evenodd">
        <g id="Создание-товара-с-нуля" transform="translate(-942.000000, -2637.000000)" fill="#000000" fill-rule="nonzero">
            <g id="Group-8" transform="translate(330.000000, 109.000000)">
                <g id="Group-16" transform="translate(3.000000, 2462.000000)">
                    <g id="active" transform="translate(0.000000, 43.000000)">
                        <g id="document" transform="translate(609.000000, 23.000000)">
                            <path d="M13.9,5.6 C13.8,5.5 13.8,5.4 13.7,5.3 L8.7,0.3 C8.6,0.2 8.5,0.1 8.4,0.1 C8.3,0 8.1,0 8,0 L1,0 C0.4,0 0,0.4 0,1 L0,15 C0,15.6 0.4,16 1,16 L13,16 C13.6,16 14,15.6 14,15 L14,6 C14,5.9 14,5.7 13.9,5.6 Z M9,3.4 L10.6,5 L9,5 L9,3.4 Z M12,14 L2,14 L2,2 L7,2 L7,6 C7,6.6 7.4,7 8,7 L12,7 L12,14 Z" id="Shape"></path>
                            <path d="M4,7 L5,7 C5.6,7 6,6.6 6,6 C6,5.4 5.6,5 5,5 L4,5 C3.4,5 3,5.4 3,6 C3,6.6 3.4,7 4,7 Z" id="Path"></path>
                            <path d="M3,9 C3,9.6 3.4,10 4,10 L10,10 C10.6,10 11,9.6 11,9 C11,8.4 10.6,8 10,8 L4,8 C3.4,8 3,8.4 3,9 Z" id="Path"></path>
                            <path d="M10,11 L4,11 C3.4,11 3,11.4 3,12 C3,12.6 3.4,13 4,13 L10,13 C10.6,13 11,12.6 11,12 C11,11.4 10.6,11 10,11 Z" id="Path"></path>
                        </g>
                    </g>
                </g>
            </g>
        </g>
    </g>
</svg>