<?xml version="1.0" encoding="UTF-8"?>
<svg width="23px" height="27px" viewBox="0 0 23 27" version="1.1" xmlns="http://www.w3.org/2000/svg" xmlns:xlink="http://www.w3.org/1999/xlink">
    <title>icon/notification</title>
    <g id="Symbols" stroke="none" stroke-width="1" fill="none" fill-rule="evenodd">
        <g id="header" transform="translate(-1547.000000, -24.000000)" fill="#FFFFFF" fill-rule="nonzero">
            <g id="profile">
                <g transform="translate(1437.000000, 20.000000)">
                    <g id="Group-3">
                        <g id="icon/notification" transform="translate(110.000000, 0.000000)">
                            <path d="M15.2904716,27.0181274 C15.1769663,29.1239028 13.4558352,30.9888916 11.3546171,30.9888916 C9.25339899,30.9888916 7.54092442,29.1239028 7.42741907,27.0181274 L2.61327363,27.0181274 C1.16122273,27.0181274 0.00091301875,25.3495311 0.00091301875,23.8761325 C0.00091301875,22.4047317 1.52864897,20.6490292 2.97827148,20.6490292 C2.97656865,20.6490292 2.97735847,15.555222 2.97735847,15.555222 C2.97735847,11.7984854 4.9375578,8.50475844 8.3125,7.22612529 L8.3125,7.10900151 C8.3125,5.39246467 9.68557494,4 11.375,4 C13.0662374,4 14.4375,5.39162671 14.4375,7.10900151 L14.4375,7.22619938 C17.8123589,8.50500276 20.0064697,11.8000514 20.0064697,15.5559968 L20.0064697,20.6490292 C21.4530164,20.649804 22.9857788,22.4042679 22.9857788,23.8761325 C22.9857788,25.3479215 21.7906089,27.0181274 20.3394829,27.0181274 L15.2904716,27.0181274 Z M13.3063965,27.0181274 L9.41641275,27.0181274 C9.52616496,28.141088 10.2407051,29.0350342 11.375,29.0350342 C12.5092949,29.0350342 13.1966443,28.141088 13.3063965,27.0181274 Z M9.41641275,8.98257254 C6.44557958,9.85305125 4.9831543,12.3102285 4.9831543,15.5 L4.9831543,20.8328921 C4.9831543,21.8144592 3.83466527,22.9872437 2.86962891,22.9872437 C2.38660436,22.9872437 1.99371589,23.38647 1.99371589,23.8761325 C1.99371589,24.3667922 2.39002378,25.0059747 2.87645942,25.0059747 L20.125,25.0059747 C20.6102908,25.0059747 21.000913,24.365407 21.000913,23.8761325 C21.000913,23.3868926 20.6067325,22.9872437 20.125,22.9872437 C19.1580505,22.9872437 18,21.8172781 18,20.8328921 L18,15.5 C18,12.3110061 16.2771059,9.85317969 13.3063965,8.98260498 L12.6739216,8.79725645 L12.6875,7.10900151 C12.6875,6.3738672 12.1001333,5.77777778 11.375,5.77777778 C10.6513978,5.77777778 10.0625,6.37499169 10.0625,7.10900151 L10.0489216,8.79724222 L9.41641275,8.98257254 Z"></path>
                        </g>
                    </g>
                </g>
            </g>
        </g>
    </g>
</svg>