<?xml version="1.0" encoding="UTF-8"?>
<svg width="16px" height="16px" viewBox="0 0 16 16" version="1.1" xmlns="http://www.w3.org/2000/svg" xmlns:xlink="http://www.w3.org/1999/xlink">
    <!-- Generator: Sketch 48.2 (47327) - http://www.bohemiancoding.com/sketch -->
    <title>Shape</title>
    <desc>Created with Sketch.</desc>
    <defs></defs>
    <g id="Заказы" stroke="none" stroke-width="1" fill="none" fill-rule="evenodd" transform="translate(-728.000000, -372.000000)">
        <g id="content" transform="translate(513.000000, 124.000000)" fill="#000000">
            <g id="Group-2" transform="translate(0.000000, 156.000000)">
                <g id="pay" transform="translate(63.000000, 82.000000)">
                    <g id="print" transform="translate(137.000000, 0.000000)">
                        <path d="M28,26 L18,26 C16.3,26 15,24.7 15,23 L15,19 C15,17.3 16.3,16 18,16 L18,11 C18,10.4 18.4,10 19,10 L27,10 C27.6,10 28,10.4 28,11 L28,16 C29.7,16 31,17.3 31,19 L31,23 C31,24.7 29.7,26 28,26 L28,26 Z M24,24 L28,24 C28.6,24 29,23.6 29,23 L29,19 C29,18.4 28.6,18 28,18 L28,20 C28,20.6 27.6,21 27,21 L19,21 C18.4,21 18,20.6 18,20 L18,18 C17.4,18 17,18.4 17,19 L17,23 C17,23.6 17.4,24 18,24 L22,24 L22,23 C22,22.4 22.4,22 23,22 C23.6,22 24,22.4 24,23 L24,24 L24,24 Z M20,19 L26,19 L26,12 L20,12 L20,19 L20,19 Z M24,18 L22,18 C21.4,18 21,17.6 21,17 C21,16.4 21.4,16 22,16 L24,16 C24.6,16 25,16.4 25,17 C25,17.6 24.6,18 24,18 L24,18 Z M24,15 L22,15 C21.4,15 21,14.6 21,14 C21,13.4 21.4,13 22,13 L24,13 C24.6,13 25,13.4 25,14 C25,14.6 24.6,15 24,15 L24,15 Z" id="Shape"></path>
                    </g>
                </g>
            </g>
        </g>
    </g>
</svg>