<svg width="14" height="14" viewBox="0 0 14 14" fill="none" xmlns="http://www.w3.org/2000/svg">
<path fill-rule="evenodd" clip-rule="evenodd" d="M6.37049 8.73668H7.62223C7.61569 8.35706 7.6476 8.09362 7.71795 7.94636C7.78831 7.79909 7.96912 7.60438 8.26038 7.36221C8.82326 6.89424 9.1906 6.52444 9.3624 6.25282C9.53421 5.9812 9.62012 5.69322 9.62012 5.38887C9.62012 4.83908 9.38613 4.35721 8.91816 3.94323C8.45018 3.52925 7.82023 3.32227 7.02827 3.32227C6.27558 3.32227 5.66771 3.5268 5.20465 3.93587C4.74158 4.34493 4.49205 4.84236 4.45605 5.42814L5.72253 5.58522C5.81089 5.17616 5.97287 4.87181 6.2085 4.67219C6.44412 4.47256 6.73701 4.37275 7.08717 4.37275C7.45043 4.37275 7.73923 4.46847 7.95358 4.65991C8.16793 4.85136 8.2751 5.08125 8.2751 5.3496C8.2751 5.54268 8.21456 5.7194 8.09348 5.87975C8.01494 5.9812 7.77441 6.19555 7.37188 6.52281C6.96936 6.85006 6.70101 7.14459 6.56684 7.40639C6.43267 7.66819 6.36558 8.00199 6.36558 8.40779C6.36558 8.44706 6.36722 8.55669 6.37049 8.73668ZM6.37049 9.21283V10.5922H7.74986V9.21283H6.37049Z" fill="#A2A2A2"/>
<circle cx="7" cy="7" r="6.5" stroke="#EBEBEB"/>
</svg>
