<svg width="12" height="12" viewBox="0 0 12 12" fill="none" xmlns="http://www.w3.org/2000/svg">
<path fill-rule="evenodd" clip-rule="evenodd" d="M11.775 10.725L9.45 8.4C10.125 7.5 10.5 6.45 10.5 5.25C10.5 2.325 8.175 0 5.25 0C2.325 0 0 2.325 0 5.25C0 8.175 2.325 10.5 5.25 10.5C6.45 10.5 7.5 10.125 8.4 9.45L10.725 11.775C10.875 11.925 11.1 12 11.25 12C11.475 12 11.625 11.925 11.775 11.775C12.075 11.475 12.075 11.025 11.775 10.725ZM1.5 5.25C1.5 3.15 3.15 1.5 5.25 1.5C7.35 1.5 9 3.15 9 5.25C9 7.35 7.35 9 5.25 9C3.15 9 1.5 7.35 1.5 5.25Z" fill="#818181"/>
</svg>
