<?xml version="1.0" encoding="UTF-8"?>
<svg width="16px" height="16px" viewBox="0 0 16 16" version="1.1" xmlns="http://www.w3.org/2000/svg" xmlns:xlink="http://www.w3.org/1999/xlink">
    <title>icon/setting</title>
    <g id="Список-товаров" stroke="none" stroke-width="1" fill="none" fill-rule="evenodd">
        <g id="список-товаров/Редактирование-видимости-колонок" transform="translate(-1559.000000, -147.000000)" fill="#818181" fill-rule="nonzero">
            <g id="table" transform="translate(10.000000, 137.000000)">
                <g id="Group-6" transform="translate(1367.000000, 0.000000)">
                    <path d="M197,17 L194.9,17 C194.8,16.4 194.5,15.8 194.2,15.2 L195.7,13.7 C196.1,13.3 196.1,12.7 195.7,12.3 C195.5,12.1 195.2,12 195,12 C194.7,12 194.5,12.1 194.3,12.3 L192.8,13.8 C192.2,13.5 191.6,13.2 191,13.1 L191,11 C191,10.5 190.5,10 190,10 C189.5,10 189,10.5 189,11 L189,13.1 C188.4,13.2 187.8,13.5 187.2,13.8 L185.8,12.3 C185.6,12.1 185.3,12.1 185.1,12.1 C184.8,12.1 184.6,12.2 184.4,12.4 C184,12.7 184,13.4 184.3,13.8 L185.8,15.3 C185.5,15.8 185.2,16.4 185.1,17 L183,17 C182.5,17 182,17.5 182,18 C182,18.5 182.5,19 183,19 L185.1,19 C185.2,19.6 185.5,20.2 185.8,20.8 L184.3,22.3 C183.9,22.7 183.9,23.3 184.3,23.7 C184.5,23.9 184.8,24 185,24 C185.3,24 185.5,23.9 185.7,23.7 L187.2,22.2 C187.7,22.5 188.3,22.8 189,22.9 L189,25 C189,25.5 189.5,26 190,26 C190.5,26 191,25.5 191,25 L191,22.9 C191.6,22.8 192.2,22.5 192.8,22.2 L194.3,23.7 C194.5,23.9 194.8,24 195,24 C195.3,24 195.5,23.9 195.7,23.7 C196.1,23.3 196.1,22.7 195.7,22.3 L194.2,20.8 C194.5,20.3 194.8,19.7 194.9,19 L197,19 C197.5,19 198,18.5 198,18 C198,17.5 197.5,17 197,17 Z M190,21 C188.3,21 187,19.7 187,18 C187,16.3 188.3,15 190,15 C191.7,15 193,16.3 193,18 C193,19.7 191.7,21 190,21 Z" id="icon/setting"></path>
                </g>
            </g>
        </g>
    </g>
</svg>