<?xml version="1.0" encoding="UTF-8"?>
<svg width="26px" height="26px" viewBox="0 0 26 26" version="1.1" xmlns="http://www.w3.org/2000/svg" xmlns:xlink="http://www.w3.org/1999/xlink">
    <!-- Generator: Sketch 59.1 (86144) - https://sketch.com -->
    <title>whatsapp</title>
    <desc>Created with Sketch.</desc>
    <g id="детальная-универсальная" stroke="none" stroke-width="1" fill="none" fill-rule="evenodd">
        <g id="Открытое-окно" transform="translate(-28.000000, -185.000000)" fill="#25D366">
            <g id="Group-6-Copy" transform="translate(28.000000, 185.000000)">
                <g id="Group-5">
                    <path d="M18.9563948,15.5806023 C18.6329326,15.4195521 17.0426859,14.6408031 16.7461634,14.5333127 C16.4496409,14.4258842 16.2339995,14.3722008 16.0183581,14.6943629 C15.8027167,15.0166486 15.1828563,15.7417761 14.9940924,15.956695 C14.8054527,16.1714286 14.616751,16.1984247 14.2933509,16.037251 C13.9698268,15.8760772 12.9275599,15.5361853 11.69206,14.4393514 C10.7304259,13.5857915 10.0812671,12.5316448 9.89256533,12.2092973 C9.70392565,11.8870734 9.87251577,11.7128649 10.0344641,11.5523089 C10.1799631,11.4080618 10.3579262,11.176278 10.5196262,10.9883552 C10.6813883,10.8003707 10.7352676,10.6660077 10.8430883,10.4513359 C10.950909,10.236417 10.8970297,10.0484324 10.8161487,9.88732046 C10.7352676,9.72620849 10.0883434,8.14159073 9.81882267,7.49695753 C9.55625411,6.86937452 9.28958874,6.95437838 9.09101738,6.94437066 C8.90256392,6.93504247 8.68667422,6.93306564 8.47109488,6.93306564 C8.25545346,6.93306564 7.90498961,7.01362162 7.60852922,7.33584556 C7.31200676,7.65819305 6.47638077,8.43700386 6.47638077,10.0214981 C6.47638077,11.6060541 7.63546888,13.1367413 7.79723098,13.3515985 C7.958931,13.5665174 10.0781014,16.8180386 13.3229646,18.2125097 C14.0947175,18.5441853 14.6972596,18.7423012 15.1669656,18.8905637 C15.9418842,19.1356911 16.6470329,19.1010965 17.2043238,19.0181931 C17.8257981,18.9257761 19.1180948,18.239444 19.3876776,17.4875058 C19.6571983,16.735444 19.6571983,16.0909344 19.5763173,15.956695 C19.4954983,15.8223938 19.2798569,15.7417761 18.9563948,15.5806023 M13.054375,23.6006795 L13.0500298,23.6006795 C11.119313,23.5999382 9.22559153,23.0837375 7.57352008,22.1080463 L7.18066041,21.8759537 L3.10824067,22.9391197 L4.19520002,18.9875521 L3.93939741,18.5824247 C2.86230766,16.8774672 2.29347119,14.9069961 2.29427728,12.883583 C2.29663691,6.97939768 7.1235533,2.17593822 13.058658,2.17593822 C15.9326354,2.17692664 18.6342362,3.29229344 20.6657595,5.3163861 C22.6972208,7.34041699 23.8153408,10.0309498 23.8142863,12.8921699 C23.8118647,18.7968494 18.9849483,23.6006795 13.054375,23.6006795 M22.2118725,3.77834749 C19.7677502,1.34307336 16.5173625,0.00135907336 13.0542508,0 C5.9187795,0 0.111358864,5.77921236 0.108503509,12.8827181 C0.107572415,15.1534826 0.70365891,17.3698842 1.83655224,19.3237992 L0,26 L6.86266071,24.2083707 C8.75352678,25.2347799 10.8824426,25.7758147 13.0490988,25.776556 L13.054375,25.776556 L13.054437,25.776556 C20.1891635,25.776556 25.9971428,19.9967259 26,12.8930347 C26.0013016,9.45056371 24.6559947,6.21355985 22.2118725,3.77834749" id="whatsapp"></path>
                </g>
            </g>
        </g>
    </g>
</svg>