<svg width="16" height="16" viewBox="0 0 16 16" fill="none" xmlns="http://www.w3.org/2000/svg">
<path fill-rule="evenodd" clip-rule="evenodd" d="M14 4.00039H13.7L12.1 0.900391C11.9 0.600391 11.6 0.400391 11.2 0.400391C11 0.400391 10.9 0.400391 10.7 0.500391L3.8 4.00039H2C0.9 4.00039 0 4.90039 0 6.00039V14.0004C0 15.1004 0.9 16.0004 2 16.0004H14C15.1 16.0004 16 15.1004 16 14.0004V6.00039C16 4.90039 15.1 4.00039 14 4.00039ZM10.8 2.70039L11.4 4.00039H8.2L10.8 2.70039ZM2 14.0004H14V6.00039H2V14.0004Z" fill="black"/>
<path d="M12 11C12.5523 11 13 10.5523 13 10C13 9.44772 12.5523 9 12 9C11.4477 9 11 9.44772 11 10C11 10.5523 11.4477 11 12 11Z" fill="black"/>
</svg>
