<?xml version="1.0" encoding="UTF-8"?>
<svg width="15px" height="15px" viewBox="0 0 15 15" version="1.1" xmlns="http://www.w3.org/2000/svg" xmlns:xlink="http://www.w3.org/1999/xlink">
    <!-- Generator: Sketch 52.5 (67469) - http://www.bohemiancoding.com/sketch -->
    <title>Combined Shape</title>
    <desc>Created with Sketch.</desc>
    <g id="Страница-товара" stroke="none" stroke-width="1" fill="none" fill-rule="evenodd">
        <g id="Artboard-Copy-12" transform="translate(-479.000000, -1655.000000)" fill="#A8A8A8">
            <g id="отзыв-copy-2" transform="translate(19.000000, 1249.000000)">
                <g id="bottom-bar" transform="translate(229.000000, 384.000000)">
                    <g id="Group-6-Copy-2" transform="translate(231.000000, 22.000000)">
                        <path d="M7,0 L8,0 C11.8659932,-7.10171439e-16 15,3.13400675 15,7 L15,8 C15,11.8659932 11.8659932,15 8,15 L7,15 C3.13400675,15 4.73447626e-16,11.8659932 0,8 L0,7 C-4.73447626e-16,3.13400675 3.13400675,7.10171439e-16 7,0 Z M7.5,1 C3.91014913,1 1,3.91014913 1,7.5 C1,11.0898509 3.91014913,14 7.5,14 C11.0898509,14 14,11.0898509 14,7.5 C14,3.91014913 11.0898509,1 7.5,1 Z M7.0078125,9.78515625 L6.58007812,5.42578125 L6.58007812,3.41015625 L8.36132812,3.41015625 L8.36132812,5.42578125 L7.93945312,9.78515625 L7.0078125,9.78515625 Z M6.65039062,12 L6.65039062,10.3535156 L8.296875,10.3535156 L8.296875,12 L6.65039062,12 Z" id="Combined-Shape"></path>
                    </g>
                </g>
            </g>
        </g>
    </g>
</svg>