<?xml version="1.0" encoding="UTF-8"?>
<svg width="23px" height="23px" viewBox="0 0 23 23" version="1.1" xmlns="http://www.w3.org/2000/svg" xmlns:xlink="http://www.w3.org/1999/xlink">
    <!-- Generator: Sketch 52.5 (67469) - http://www.bohemiancoding.com/sketch -->
    <title>whatsapp</title>
    <desc>Created with Sketch.</desc>
    <g id="Страница-контактов" stroke="none" stroke-width="1" fill="none" fill-rule="evenodd">
        <g id="Сборка-Copy-4" transform="translate(-995.000000, -235.000000)" fill="#25D366">
            <g id="Group-9" transform="translate(21.000000, 112.000000)">
                <g id="social-copy" transform="translate(972.000000, 80.000000)">
                    <g id="iconfinder_social-01_3146791" transform="translate(2.000000, 43.000000)">
                        <path d="M11.5,1.95399252e-14 C17.8510288,1.95399252e-14 23,5.14897119 23,11.4952675 C23,17.8462963 17.8510288,22.9952675 11.5,22.9952675 C9.34670782,22.9952675 7.33065844,22.4037037 5.60802469,21.3720165 L0.397530864,22.8154321 L1.87880658,17.7989712 C0.690946502,15.9911523 0,13.8236626 0,11.5 C0,5.14897119 5.14897119,1.95399252e-14 11.5,1.95399252e-14 Z M17.8179012,14.6565844 C17.8037037,14.505144 17.713786,14.3726337 17.5765432,14.3111111 C16.6489712,13.8851852 15.7166667,13.4592593 14.7890947,13.0333333 C14.6849794,12.9860082 14.5572016,13.0096708 14.4814815,13.0995885 L13.2226337,14.5193416 C13.123251,14.6329218 12.9670782,14.6707819 12.8298354,14.6139918 C12.176749,14.3442387 11.2965021,13.8899177 10.4067901,13.123251 C9.34197531,12.2098765 8.71728395,11.2302469 8.36707819,10.591358 C8.54218107,10.4730453 9.02016461,10.118107 9.23312757,9.46028807 C9.23312757,9.45555556 9.23786008,9.45082305 9.23786008,9.45082305 C9.37037037,9.04382716 9.34197531,8.6037037 9.19526749,8.20144033 C8.94444444,7.53415638 8.44279835,6.24218107 8.24876543,6.04341564 C8.21563786,6.01028807 8.17777778,5.97716049 8.17777778,5.97716049 C8.03580247,5.84938272 7.85123457,5.77839506 7.65720165,5.76893004 C7.5909465,5.76419753 7.51995885,5.76419753 7.44423868,5.76419753 C7.22654321,5.75946502 7.03251029,5.75946502 6.89053498,5.77839506 C6.4882716,5.83518519 6.19485597,6.10493827 6.01028807,6.33209877 C5.78786008,6.60185185 5.52283951,7.00411523 5.34773663,7.53415638 C5.33353909,7.58148148 5.31934156,7.62407407 5.30514403,7.67139918 C5.11111111,8.34341564 5.14897119,9.0627572 5.3808642,9.72530864 C5.59855967,10.3452675 5.91563786,11.0835391 6.3936214,11.8644033 C7.20288066,13.1942387 8.08312757,14.0176955 8.67942387,14.5619342 C9.35144033,15.181893 10.1843621,15.9438272 11.5047325,16.5779835 C12.7257202,17.1648148 13.8331276,17.3825103 14.5761317,17.472428 C14.8790123,17.500823 15.4374486,17.5055556 16.0763374,17.2641975 C16.3697531,17.1506173 16.6158436,17.0133745 16.8146091,16.8666667 C17.3399177,16.4927984 17.7090535,15.9296296 17.8037037,15.2954733 C17.8037037,15.2907407 17.8037037,15.2860082 17.8037037,15.2812757 C17.8368313,15.0399177 17.8320988,14.8316872 17.8179012,14.6565844 Z" id="whatsapp"></path>
                    </g>
                </g>
            </g>
        </g>
    </g>
</svg>